<svg id="Calque_1" data-name="Calque 1" xmlns="http://www.w3.org/2000/svg" viewBox="0 0 697.16 722.21"><defs><style>.cls-1{fill:#747474;}</style></defs><title>logoLITMAcademy</title><path d="M333.05,47.35C460.46,5.16,599.51,42.15,691.25,143c48.63,53.47,79,116.09,89.82,187.54,16.2,106.65-7.9,203.52-75,288.32C652.72,686.34,583.27,729.64,498.2,743.72,375.59,764,271.28,726.56,186.66,636.12c-49.25-52.63-78.29-115.82-89.83-187-9.18-56.66-5.3-112.48,11.16-167.45.34-1.11.75-2.2,1.13-3.3.94,1.35,2,2.62,2.81,4a160.8,160.8,0,0,0,37.55,45C185.38,357,226.6,370,272.68,363.84c51.23-6.82,91.37-32.82,117.6-77.32,36.42-61.77,34.76-124.09-2.66-185.13-12.89-21-30.74-37.5-51.72-50.55C334.78,50.14,331.66,50.36,333.05,47.35Z" transform="translate(-88.78 -26.89)"/><path class="cls-1" d="M333.05,47.35c-1.39,3,1.73,2.79,2.85,3.49,21,13,38.83,29.52,51.72,50.55,37.42,61,39.08,123.36,2.66,185.13-26.23,44.5-66.37,70.5-117.6,77.32-46.08,6.14-87.3-6.85-123.2-36.41a160.8,160.8,0,0,1-37.55-45c-.81-1.42-1.87-2.69-2.81-4-5.65-12.57-11-25.22-14.6-38.61-20.33-76,14.6-158,84.38-194.2,48.93-25.39,98.77-24.49,148.07.28C328.94,46.84,330.78,47.82,333.05,47.35ZM91.94,186.89c.13,36.91,6.5,63.14,19.14,87.91C144.85,341,219.54,375.52,290.4,357.58,371.32,337.1,422.45,257.41,411.6,174.4c-5.55-42.45-24-78.72-57.17-106C304.15,27,247.56,17.65,188.24,44.7,124.44,73.79,95.25,127.23,91.94,186.89Z" transform="translate(-88.78 -26.89)"/><path d="M91.94,186.89c3.31-59.66,32.5-113.1,96.3-142.19C247.56,17.65,304.15,27,354.43,68.39c33.19,27.29,51.62,63.56,57.17,106,10.85,83-40.28,162.7-121.2,183.18C219.54,375.52,144.85,341,111.08,274.8,98.44,250,92.07,223.8,91.94,186.89Z" transform="translate(-88.78 -26.89)"/></svg>